<?xml version="1.0" encoding="UTF-8"?>
<svg xmlns="http://www.w3.org/2000/svg" viewBox="0 0 24 24" width="24" height="24">

  <style>
    @keyframes gear-spin {
      from { transform: rotate(0deg); transform-origin: 12px 12px; }
      to   { transform: rotate(360deg); transform-origin: 12px 12px; }
    }
    .gear { animation: gear-spin 2s linear infinite; }
  </style>
  <g class="gear">
    <path fill="#757575" d="
      M12 2
      L13.5 5.2 16.9 4.1 16.9 7.1
      L20 8.5 18.5 11.5 21 14
      L18.5 14.5 17.9 17.9 14.8 18.5
      L12 22 9.2 18.5 6.1 17.9 5.5 14.5
      L3 14 5.5 11.5 4 8.5 7.1 7.1
      L7.1 4.1 10.5 5.2 Z
    "/>
    <!-- Simplified gear using circles and a center hole -->
    <circle cx="12" cy="12" r="9" fill="#9e9e9e" stroke="#616161" stroke-width="1"/>
    <circle cx="12" cy="12" r="4" fill="#424242"/>
    <!-- Teeth approximation via rotated rects -->
    <rect x="11" y="2" width="2" height="3" rx="0.5" fill="#9e9e9e"/>
    <rect x="11" y="19" width="2" height="3" rx="0.5" fill="#9e9e9e"/>
    <rect x="2" y="11" width="3" height="2" rx="0.5" fill="#9e9e9e"/>
    <rect x="19" y="11" width="3" height="2" rx="0.5" fill="#9e9e9e"/>
    <rect x="4.5" y="4.5" width="2" height="3" rx="0.5" fill="#9e9e9e" transform="rotate(45 5.5 6)"/>
    <rect x="17.5" y="4.5" width="2" height="3" rx="0.5" fill="#9e9e9e" transform="rotate(-45 18.5 6)"/>
    <rect x="4.5" y="17.5" width="2" height="3" rx="0.5" fill="#9e9e9e" transform="rotate(-45 5.5 18)"/>
    <rect x="17.5" y="17.5" width="2" height="3" rx="0.5" fill="#9e9e9e" transform="rotate(45 18.5 18)"/>
  </g>

</svg>